<svg xmlns="http://www.w3.org/2000/svg" xmlns:xlink="http://www.w3.org/1999/xlink" version="1.1" width="256" height="256" viewBox="0 0 256 256" xml:space="preserve">

<defs>
</defs>
<g style="stroke: none; stroke-width: 0; stroke-dasharray: none; stroke-linecap: butt; stroke-linejoin: miter; stroke-miterlimit: 10; fill: none; fill-rule: nonzero; opacity: 1;" transform="translate(1.4065934065934016 1.4065934065934016) scale(2.81 2.81)" >
	<circle cx="44.410999999999994" cy="43.741" r="2.751" style="stroke: none; stroke-width: 1; stroke-dasharray: none; stroke-linecap: butt; stroke-linejoin: miter; stroke-miterlimit: 10; fill: rgb(248,204,29); fill-rule: nonzero; opacity: 1;" transform="  matrix(1 0 0 1 0 0) "/>
	<circle cx="34.811" cy="47.230999999999995" r="2.751" style="stroke: none; stroke-width: 1; stroke-dasharray: none; stroke-linecap: butt; stroke-linejoin: miter; stroke-miterlimit: 10; fill: rgb(248,204,29); fill-rule: nonzero; opacity: 1;" transform="  matrix(1 0 0 1 0 0) "/>
	<circle cx="54.010999999999996" cy="40.251" r="2.751" style="stroke: none; stroke-width: 1; stroke-dasharray: none; stroke-linecap: butt; stroke-linejoin: miter; stroke-miterlimit: 10; fill: rgb(248,204,29); fill-rule: nonzero; opacity: 1;" transform="  matrix(1 0 0 1 0 0) "/>
	<circle cx="47.641" cy="52.601" r="2.751" style="stroke: none; stroke-width: 1; stroke-dasharray: none; stroke-linecap: butt; stroke-linejoin: miter; stroke-miterlimit: 10; fill: rgb(248,204,29); fill-rule: nonzero; opacity: 1;" transform="  matrix(1 0 0 1 0 0) "/>
	<circle cx="38.041" cy="56.101" r="2.751" style="stroke: none; stroke-width: 1; stroke-dasharray: none; stroke-linecap: butt; stroke-linejoin: miter; stroke-miterlimit: 10; fill: rgb(248,204,29); fill-rule: nonzero; opacity: 1;" transform="  matrix(1 0 0 1 0 0) "/>
	<circle cx="57.241" cy="49.111" r="2.751" style="stroke: none; stroke-width: 1; stroke-dasharray: none; stroke-linecap: butt; stroke-linejoin: miter; stroke-miterlimit: 10; fill: rgb(0,0,0); fill-rule: nonzero; opacity: 1;" transform="  matrix(1 0 0 1 0 0) "/>
	<path d="M 72.798 52.002 l -9.215 -25.315 c 0 -0.001 0 -0.002 0 -0.003 s -0.001 -0.002 -0.002 -0.003 l -1.561 -4.289 c -0.308 -0.846 -0.929 -1.523 -1.749 -1.905 c -0.82 -0.384 -1.739 -0.424 -2.584 -0.116 l -7.215 2.626 l -1.049 -2.881 c -0.188 -0.519 -0.765 -0.789 -1.281 -0.597 c -0.52 0.188 -0.787 0.763 -0.598 1.282 l 1.048 2.88 l -20.276 7.38 l -1.048 -2.88 c -0.189 -0.519 -0.764 -0.786 -1.282 -0.598 c -0.519 0.189 -0.787 0.763 -0.598 1.282 l 1.048 2.881 l -7.215 2.626 c -1.752 0.638 -2.659 2.582 -2.021 4.333 l 10.777 29.61 c 0.499 1.371 1.799 2.225 3.181 2.225 c 0.383 0 0.772 -0.065 1.152 -0.204 l 38.466 -14 C 72.529 55.698 73.435 53.754 72.798 52.002 z M 19.13 36.967 c 0.157 -0.336 0.432 -0.59 0.776 -0.715 l 8.153 -2.968 c 0.001 0 0.001 0 0.002 0 c 0.001 0 0.001 -0.001 0.001 -0.001 l 30.309 -11.032 c 0.152 -0.056 0.31 -0.083 0.468 -0.083 c 0.2 0 0.4 0.044 0.588 0.132 c 0.336 0.156 0.59 0.432 0.715 0.776 l 1.22 3.352 L 20.301 41.373 l -1.22 -3.352 C 18.956 37.677 18.973 37.303 19.13 36.967 z M 70.093 54.456 L 70.093 54.456 l -38.465 14 c -0.716 0.256 -1.51 -0.11 -1.771 -0.825 l -8.873 -24.379 l 41.061 -14.945 l 8.874 24.379 C 71.179 53.402 70.809 54.196 70.093 54.456 z" style="stroke: none; stroke-width: 1; stroke-dasharray: none; stroke-linecap: butt; stroke-linejoin: miter; stroke-miterlimit: 10; fill: rgb(0,0,0); fill-rule: nonzero; opacity: 1;" transform=" matrix(1 0 0 1 0 0) " stroke-linecap="round" />
	<path d="M 84.109 21.619 c -0.349 0 -0.688 -0.183 -0.871 -0.508 C 77.347 10.69 66.26 4.217 54.302 4.217 c -10.208 0 -19.703 4.595 -26.05 12.607 c -0.343 0.433 -0.971 0.504 -1.405 0.163 c -0.433 -0.343 -0.506 -0.972 -0.163 -1.405 C 33.413 7.088 43.479 2.217 54.302 2.217 c 12.678 0 24.432 6.863 30.676 17.91 c 0.272 0.481 0.103 1.091 -0.378 1.363 C 84.445 21.578 84.276 21.619 84.109 21.619 z" style="stroke: none; stroke-width: 1; stroke-dasharray: none; stroke-linecap: butt; stroke-linejoin: miter; stroke-miterlimit: 10; fill: rgb(248,204,29); fill-rule: nonzero; opacity: 1;" transform=" matrix(1 0 0 1 0 0) " stroke-linecap="round" />
	<path d="M 33.773 88.339 c -10.823 0 -20.889 -4.871 -27.618 -13.364 c -0.343 -0.433 -0.27 -1.062 0.163 -1.405 c 0.432 -0.343 1.061 -0.271 1.405 0.163 c 6.347 8.012 15.842 12.607 26.05 12.607 c 11.957 0 23.044 -6.474 28.936 -16.895 c 0.272 -0.481 0.883 -0.649 1.362 -0.378 c 0.48 0.271 0.65 0.882 0.378 1.362 C 58.204 81.476 46.45 88.339 33.773 88.339 z" style="stroke: none; stroke-width: 1; stroke-dasharray: none; stroke-linecap: butt; stroke-linejoin: miter; stroke-miterlimit: 10; fill: rgb(248,204,29); fill-rule: nonzero; opacity: 1;" transform=" matrix(1 0 0 1 0 0) " stroke-linecap="round" />
	<path d="M 88.737 26.119 h -0.955 v -0.956 c 0 -0.552 -0.447 -1 -1 -1 c -0.553 0 -1 0.448 -1 1 v 0.956 h -0.956 c -0.553 0 -1 0.448 -1 1 s 0.447 1 1 1 h 0.956 v 0.956 c 0 0.552 0.447 1 1 1 c 0.553 0 1 -0.448 1 -1 v -0.956 h 0.955 c 0.553 0 1 -0.448 1 -1 S 89.29 26.119 88.737 26.119 z" style="stroke: none; stroke-width: 1; stroke-dasharray: none; stroke-linecap: butt; stroke-linejoin: miter; stroke-miterlimit: 10; fill: rgb(248,204,29); fill-rule: nonzero; opacity: 1;" transform=" matrix(1 0 0 1 0 0) " stroke-linecap="round" />
	<path d="M 26.947 6.031 c -0.806 0 -1.563 -0.314 -2.133 -0.884 c -0.57 -0.569 -0.884 -1.327 -0.884 -2.133 c 0 -0.806 0.314 -1.563 0.884 -2.133 c 1.176 -1.176 3.09 -1.175 4.266 0 c 1.176 1.177 1.176 3.09 0 4.266 C 28.51 5.717 27.753 6.031 26.947 6.031 z M 26.947 1.999 c -0.26 0 -0.521 0.099 -0.719 0.297 c -0.192 0.191 -0.298 0.447 -0.298 0.718 s 0.106 0.527 0.298 0.718 c 0.396 0.396 1.041 0.397 1.438 0 c 0.396 -0.396 0.396 -1.041 0 -1.438 C 27.467 2.098 27.207 1.999 26.947 1.999 z" style="stroke: none; stroke-width: 1; stroke-dasharray: none; stroke-linecap: butt; stroke-linejoin: miter; stroke-miterlimit: 10; fill: rgb(248,204,29); fill-rule: nonzero; opacity: 1;" transform=" matrix(1 0 0 1 0 0) " stroke-linecap="round" />
	<path d="M 15.939 63.825 c -0.218 0 -0.437 -0.07 -0.621 -0.216 C 6.825 56.88 1.954 46.814 1.954 35.99 c 0 -12.677 6.863 -24.432 17.91 -30.677 c 0.482 -0.272 1.091 -0.102 1.363 0.378 c 0.271 0.481 0.102 1.091 -0.378 1.363 C 10.428 12.945 3.954 24.033 3.954 35.99 c 0 10.209 4.595 19.704 12.606 26.05 c 0.433 0.344 0.506 0.973 0.163 1.405 C 16.526 63.695 16.234 63.825 15.939 63.825 z" style="stroke: none; stroke-width: 1; stroke-dasharray: none; stroke-linecap: butt; stroke-linejoin: miter; stroke-miterlimit: 10; fill: rgb(248,204,29); fill-rule: nonzero; opacity: 1;" transform=" matrix(1 0 0 1 0 0) " stroke-linecap="round" />
	<path d="M 74.091 84.353 c -0.295 0 -0.588 -0.13 -0.785 -0.379 c -0.343 -0.433 -0.27 -1.062 0.163 -1.405 c 8.012 -6.347 12.607 -15.841 12.607 -26.049 c 0 -11.958 -6.474 -23.046 -16.895 -28.936 c -0.48 -0.272 -0.65 -0.882 -0.378 -1.363 c 0.271 -0.481 0.883 -0.65 1.362 -0.378 c 11.047 6.245 17.91 17.999 17.91 30.677 c 0 10.822 -4.871 20.889 -13.364 27.618 C 74.528 84.283 74.308 84.353 74.091 84.353 z" style="stroke: none; stroke-width: 1; stroke-dasharray: none; stroke-linecap: butt; stroke-linejoin: miter; stroke-miterlimit: 10; fill: rgb(248,204,29); fill-rule: nonzero; opacity: 1;" transform=" matrix(1 0 0 1 0 0) " stroke-linecap="round" />
	<path d="M 67.756 90 c -0.807 0 -1.564 -0.313 -2.134 -0.884 c -1.175 -1.175 -1.175 -3.089 0 -4.266 c 1.178 -1.176 3.089 -1.175 4.267 -0.001 l 0.001 0.001 c 1.175 1.177 1.175 3.091 -0.001 4.266 C 69.319 89.687 68.562 90 67.756 90 z M 67.756 85.968 c -0.261 0 -0.521 0.099 -0.719 0.297 c -0.396 0.396 -0.396 1.041 0 1.438 c 0.385 0.385 1.053 0.385 1.438 0 c 0.396 -0.396 0.396 -1.04 0 -1.437 l 0 0 C 68.277 86.067 68.016 85.968 67.756 85.968 z" style="stroke: none; stroke-width: 1; stroke-dasharray: none; stroke-linecap: butt; stroke-linejoin: miter; stroke-miterlimit: 10; fill: rgb(248,204,29); fill-rule: nonzero; opacity: 1;" transform=" matrix(1 0 0 1 0 0) " stroke-linecap="round" />
	<path d="M 5.174 67.515 H 4.219 v -0.956 c 0 -0.553 -0.448 -1 -1 -1 s -1 0.447 -1 1 v 0.956 H 1.263 c -0.552 0 -1 0.447 -1 1 c 0 0.553 0.448 1 1 1 h 0.956 v 0.955 c 0 0.553 0.448 1 1 1 s 1 -0.447 1 -1 v -0.955 h 0.955 c 0.552 0 1 -0.447 1 -1 C 6.174 67.963 5.726 67.515 5.174 67.515 z" style="stroke: none; stroke-width: 1; stroke-dasharray: none; stroke-linecap: butt; stroke-linejoin: miter; stroke-miterlimit: 10; fill: rgb(248,204,29); fill-rule: nonzero; opacity: 1;" transform=" matrix(1 0 0 1 0 0) " stroke-linecap="round" />
</g>
</svg>