<svg xmlns="http://www.w3.org/2000/svg" xmlns:xlink="http://www.w3.org/1999/xlink" version="1.1" width="256" height="256" viewBox="0 0 256 256" xml:space="preserve">

<defs>
</defs>
<g style="stroke: none; stroke-width: 0; stroke-dasharray: none; stroke-linecap: butt; stroke-linejoin: miter; stroke-miterlimit: 10; fill: none; fill-rule: nonzero; opacity: 1;" transform="translate(1.4065934065934016 1.4065934065934016) scale(2.81 2.81)" >
	<path d="M 86.121 27.37 H 3.878 c -0.552 0 -1 -0.448 -1 -1 V 15.586 c 0 -4.915 3.999 -8.913 8.913 -8.913 h 66.417 c 4.915 0 8.913 3.999 8.913 8.913 V 26.37 C 87.121 26.922 86.674 27.37 86.121 27.37 z M 4.878 25.37 h 80.243 v -9.784 c 0 -3.812 -3.102 -6.913 -6.913 -6.913 H 11.792 c -3.812 0 -6.913 3.101 -6.913 6.913 V 25.37 z" style="stroke: none; stroke-width: 1; stroke-dasharray: none; stroke-linecap: butt; stroke-linejoin: miter; stroke-miterlimit: 10; fill: rgb(0,0,0); fill-rule: nonzero; opacity: 1;" transform=" matrix(1 0 0 1 0 0) " stroke-linecap="round" />
	<path d="M 43.087 90 H 11.792 c -4.915 0 -8.913 -3.998 -8.913 -8.913 V 26.37 c 0 -0.552 0.448 -1 1 -1 h 82.243 c 0.553 0 1 0.448 1 1 v 19.595 c 0 0.552 -0.447 1 -1 1 s -1 -0.448 -1 -1 V 27.37 H 4.878 v 53.717 c 0 3.812 3.101 6.913 6.913 6.913 h 31.295 c 0.552 0 1 0.447 1 1 S 43.639 90 43.087 90 z" style="stroke: none; stroke-width: 1; stroke-dasharray: none; stroke-linecap: butt; stroke-linejoin: miter; stroke-miterlimit: 10; fill: rgb(0,0,0); fill-rule: nonzero; opacity: 1;" transform=" matrix(1 0 0 1 0 0) " stroke-linecap="round" />
	<path d="M 20.294 15.349 c -0.552 0 -1 -0.448 -1 -1 V 1 c 0 -0.552 0.448 -1 1 -1 s 1 0.448 1 1 v 13.349 C 21.294 14.901 20.846 15.349 20.294 15.349 z" style="stroke: none; stroke-width: 1; stroke-dasharray: none; stroke-linecap: butt; stroke-linejoin: miter; stroke-miterlimit: 10; fill: rgb(0,0,0); fill-rule: nonzero; opacity: 1;" transform=" matrix(1 0 0 1 0 0) " stroke-linecap="round" />
	<path d="M 69.706 15.349 c -0.553 0 -1 -0.448 -1 -1 V 1 c 0 -0.552 0.447 -1 1 -1 s 1 0.448 1 1 v 13.349 C 70.706 14.901 70.259 15.349 69.706 15.349 z" style="stroke: none; stroke-width: 1; stroke-dasharray: none; stroke-linecap: butt; stroke-linejoin: miter; stroke-miterlimit: 10; fill: rgb(0,0,0); fill-rule: nonzero; opacity: 1;" transform=" matrix(1 0 0 1 0 0) " stroke-linecap="round" />
	<path d="M 45 15.349 c -0.552 0 -1 -0.448 -1 -1 V 1 c 0 -0.552 0.448 -1 1 -1 s 1 0.448 1 1 v 13.349 C 46 14.901 45.552 15.349 45 15.349 z" style="stroke: none; stroke-width: 1; stroke-dasharray: none; stroke-linecap: butt; stroke-linejoin: miter; stroke-miterlimit: 10; fill: rgb(0,0,0); fill-rule: nonzero; opacity: 1;" transform=" matrix(1 0 0 1 0 0) " stroke-linecap="round" />
	<path d="M 20.686 41.647 h -1.263 c -0.57 0 -1.032 -0.462 -1.032 -1.032 v -1.263 c 0 -0.57 0.462 -1.032 1.032 -1.032 h 1.263 c 0.57 0 1.032 0.462 1.032 1.032 v 1.263 C 21.718 41.185 21.256 41.647 20.686 41.647 z" style="stroke: none; stroke-width: 1; stroke-dasharray: none; stroke-linecap: butt; stroke-linejoin: miter; stroke-miterlimit: 10; fill: rgb(0,0,0); fill-rule: nonzero; opacity: 1;" transform=" matrix(1 0 0 1 0 0) " stroke-linecap="round" />
	<path d="M 37.316 41.647 h -1.263 c -0.57 0 -1.032 -0.462 -1.032 -1.032 v -1.263 c 0 -0.57 0.462 -1.032 1.032 -1.032 h 1.263 c 0.57 0 1.032 0.462 1.032 1.032 v 1.263 C 38.348 41.185 37.886 41.647 37.316 41.647 z" style="stroke: none; stroke-width: 1; stroke-dasharray: none; stroke-linecap: butt; stroke-linejoin: miter; stroke-miterlimit: 10; fill: rgb(0,0,0); fill-rule: nonzero; opacity: 1;" transform=" matrix(1 0 0 1 0 0) " stroke-linecap="round" />
	<path d="M 53.947 41.647 h -1.263 c -0.57 0 -1.032 -0.462 -1.032 -1.032 v -1.263 c 0 -0.57 0.462 -1.032 1.032 -1.032 h 1.263 c 0.57 0 1.032 0.462 1.032 1.032 v 1.263 C 54.978 41.185 54.516 41.647 53.947 41.647 z" style="stroke: none; stroke-width: 1; stroke-dasharray: none; stroke-linecap: butt; stroke-linejoin: miter; stroke-miterlimit: 10; fill: rgb(0,0,0); fill-rule: nonzero; opacity: 1;" transform=" matrix(1 0 0 1 0 0) " stroke-linecap="round" />
	<path d="M 70.577 41.647 h -1.263 c -0.57 0 -1.032 -0.462 -1.032 -1.032 v -1.263 c 0 -0.57 0.462 -1.032 1.032 -1.032 h 1.263 c 0.57 0 1.032 0.462 1.032 1.032 v 1.263 C 71.608 41.185 71.146 41.647 70.577 41.647 z" style="stroke: none; stroke-width: 1; stroke-dasharray: none; stroke-linecap: butt; stroke-linejoin: miter; stroke-miterlimit: 10; fill: rgb(0,0,0); fill-rule: nonzero; opacity: 1;" transform=" matrix(1 0 0 1 0 0) " stroke-linecap="round" />
	<path d="M 20.686 58.277 h -1.263 c -0.57 0 -1.032 -0.462 -1.032 -1.032 v -1.263 c 0 -0.57 0.462 -1.032 1.032 -1.032 h 1.263 c 0.57 0 1.032 0.462 1.032 1.032 v 1.263 C 21.718 57.816 21.256 58.277 20.686 58.277 z" style="stroke: none; stroke-width: 1; stroke-dasharray: none; stroke-linecap: butt; stroke-linejoin: miter; stroke-miterlimit: 10; fill: rgb(0,0,0); fill-rule: nonzero; opacity: 1;" transform=" matrix(1 0 0 1 0 0) " stroke-linecap="round" />
	<path d="M 37.316 58.277 h -1.263 c -0.57 0 -1.032 -0.462 -1.032 -1.032 v -1.263 c 0 -0.57 0.462 -1.032 1.032 -1.032 h 1.263 c 0.57 0 1.032 0.462 1.032 1.032 v 1.263 C 38.348 57.816 37.886 58.277 37.316 58.277 z" style="stroke: none; stroke-width: 1; stroke-dasharray: none; stroke-linecap: butt; stroke-linejoin: miter; stroke-miterlimit: 10; fill: rgb(0,0,0); fill-rule: nonzero; opacity: 1;" transform=" matrix(1 0 0 1 0 0) " stroke-linecap="round" />
	<path d="M 20.686 74.907 h -1.263 c -0.57 0 -1.032 -0.462 -1.032 -1.032 v -1.263 c 0 -0.57 0.462 -1.032 1.032 -1.032 h 1.263 c 0.57 0 1.032 0.462 1.032 1.032 v 1.263 C 21.718 74.446 21.256 74.907 20.686 74.907 z" style="stroke: none; stroke-width: 1; stroke-dasharray: none; stroke-linecap: butt; stroke-linejoin: miter; stroke-miterlimit: 10; fill: rgb(0,0,0); fill-rule: nonzero; opacity: 1;" transform=" matrix(1 0 0 1 0 0) " stroke-linecap="round" />
	<path d="M 37.316 74.907 h -1.263 c -0.57 0 -1.032 -0.462 -1.032 -1.032 v -1.263 c 0 -0.57 0.462 -1.032 1.032 -1.032 h 1.263 c 0.57 0 1.032 0.462 1.032 1.032 v 1.263 C 38.348 74.446 37.886 74.907 37.316 74.907 z" style="stroke: none; stroke-width: 1; stroke-dasharray: none; stroke-linecap: butt; stroke-linejoin: miter; stroke-miterlimit: 10; fill: rgb(0,0,0); fill-rule: nonzero; opacity: 1;" transform=" matrix(1 0 0 1 0 0) " stroke-linecap="round" />
	<path d="M 67.276 90 c -10.943 0 -19.846 -8.902 -19.846 -19.846 s 8.902 -19.846 19.846 -19.846 c 10.942 0 19.845 8.902 19.845 19.846 S 78.219 90 67.276 90 z M 67.276 52.309 c -9.84 0 -17.846 8.006 -17.846 17.846 S 57.437 88 67.276 88 s 17.845 -8.006 17.845 -17.846 S 77.116 52.309 67.276 52.309 z" style="stroke: none; stroke-width: 1; stroke-dasharray: none; stroke-linecap: butt; stroke-linejoin: miter; stroke-miterlimit: 10; fill: rgb(0,0,0); fill-rule: nonzero; opacity: 1;" transform=" matrix(1 0 0 1 0 0) " stroke-linecap="round" />
	<path d="M 64.683 76.052 c -0.008 0 -0.016 0 -0.024 0 c -0.281 -0.007 -0.547 -0.132 -0.731 -0.345 l -4.244 -4.896 c -0.361 -0.418 -0.316 -1.049 0.101 -1.411 c 0.417 -0.361 1.048 -0.316 1.411 0.101 l 3.524 4.066 l 8.708 -9.121 c 0.383 -0.399 1.016 -0.414 1.414 -0.033 c 0.399 0.382 0.414 1.015 0.033 1.414 l -9.468 9.916 C 65.217 75.94 64.955 76.052 64.683 76.052 z" style="stroke: none; stroke-width: 1; stroke-dasharray: none; stroke-linecap: butt; stroke-linejoin: miter; stroke-miterlimit: 10; fill: rgb(0,0,0); fill-rule: nonzero; opacity: 1;" transform=" matrix(1 0 0 1 0 0) " stroke-linecap="round" />
</g>
</svg>