<?xml version='1.0' encoding='utf-8'?>
<svg xmlns="http://www.w3.org/2000/svg" width="210mm" height="297mm" viewBox="0 0 744.09448819 1052.3622047" id="svg6265" version="1.1"> <defs id="defs6267"/> <metadata id="metadata6270"> </metadata> <g id="layer1"> <g style="display:inline" id="g5734" transform="matrix(1.5353124,0,0,1.5353124,-63.940764,517.29365)"> <path id="path5697" d="m 103.15018,134.83051 c -32.665005,2.07498 -83.956182,0.96371 -80.067622,38.95181 22.614208,64.90895 155.321552,64.22024 214.234992,69.24768 94.3098,2.85197 165.60847,-5.98464 219.28431,-25.24655 96.45304,-40.03606 40.16475,-71.1891 -13.70527,-80.06763 z" style="fill:#c8beb7;fill-rule:evenodd;stroke:none;stroke-width:1px;stroke-linecap:butt;stroke-linejoin:miter;stroke-opacity:1"/> <path id="path5689" d="m 503.68159,68.206642 c 18.22962,14.372314 27.44099,39.186828 57.12641,40.294528 4.41908,-0.40674 4.88802,2.28868 1.12575,4.84554 -2.40105,1.6768 -5.16072,2.09844 -8.03981,2.10211 3.4629,2.53411 6.08009,2.88549 9.07539,3.31537 6.30911,0.74178 2.57396,4.05432 -0.63116,3.50853 l -9.20931,-0.83713 c 2.93228,4.06794 6.21244,4.65718 9.36136,6.5587 3.28726,2.27417 2.87988,4.44188 -2.95736,3.45946 l -6.37572,-1.7852 c -3.69952,-1.06599 -8.30282,-0.39258 -2.80531,4.08046 l 5.10057,3.5704 c 4.20985,3.77869 0.52078,4.08557 -2.80531,4.59051 -9.1559,-0.40188 -15.52881,-4.51442 -21.67744,-8.926 1.60238,5.48561 -0.24327,9.56066 -6.12069,11.98635 -2.37695,-9.98079 -4.29038,-20.05428 -16.57686,-28.05316 C 493.32506,103.64492 475.31026,98.553412 458.54151,90.139106 470.6073,74.311419 486.93158,70.65084 503.68159,68.206642 Z" style="fill:#e9c6af;fill-opacity:1;fill-rule:evenodd;stroke:none;stroke-width:1px;stroke-linecap:butt;stroke-linejoin:miter;stroke-opacity:1"/> <path id="path5687" d="m 330.72978,-14.484796 -40.39447,40.394478 c 55.90307,23.443223 115.19573,34.457942 167.70921,70.32967 8.04061,-16.604834 27.58262,-21.708254 45.80445,-28.131868 -23.63905,-24.876433 -48.63502,-49.58325 -64.91969,-75.37898 z" style="fill:#3771c8;fill-rule:evenodd;stroke:none;stroke-width:1px;stroke-linecap:butt;stroke-linejoin:miter;stroke-opacity:1"/> <path id="path5693" d="m 111.69864,59.786582 -4.59063,102.909698 c 68.46311,52.74689 265.72338,52.26073 334.09554,1.50599 l 1.02015,-95.379714 z" style="fill:#ffe98f;fill-opacity:1;fill-rule:evenodd;stroke:none;stroke-width:0.99208057px;stroke-linecap:butt;stroke-linejoin:miter;stroke-opacity:1"/> <path id="path5685" d="m 357.29514,-27.684131 c -9.26097,5.255685 -20.6861,7.806165 -32.64367,9.691089 13.91095,9.9461173 24.51325,19.8922347 31.62355,29.838352 14.01187,1.239852 22.19148,-11.51772298 33.15373,-17.5969768 11.13309,7.9246875 21.74666,20.4680708 33.66378,21.4224068 14.09499,-4.692122 21.42578,-16.14844342 32.13361,-24.2277219 -18.98375,-2.6578301 -32.46504,-9.4425121 -46.16018,-16.0668051 z" style="fill:#d7e3f4;fill-rule:evenodd;stroke:none;stroke-width:1px;stroke-linecap:butt;stroke-linejoin:miter;stroke-opacity:1"/> <path id="path5566" d="m 450.73064,-116.45222 c 4.6801,9.82264 7.60111,21.650524 4.75053,40.057618 24.54849,-12.770393 8.30502,34.671406 -7.65086,26.522979 -11.08385,26.932177 -31.94757,27.53393 -51.51579,31.623553 -11.58857,5.719741 -20.08264,-0.938541 -29.07326,-5.61063 -28.58304,-8.538502 -36.95296,-22.130285 -41.31464,-36.724126 -2.87186,3.124983 -5.51739,7.042106 -9.69109,5.61063 -9.20182,-8.670974 -6.58807,-17.341948 -7.65086,-26.012922 0.91446,-11.708228 4.19339,-16.323081 11.22126,-9.691089 3.50449,-27.651623 15.37746,-42.551283 33.15372,-48.455443 13.18761,-4.20997 27.86409,-5.70448 40.29453,-2.55029 17.71046,19.96969 34.40305,22.68961 57.47646,25.22972 z" style="fill:#e9c6af;fill-rule:evenodd;stroke:none;stroke-width:1px;stroke-linecap:butt;stroke-linejoin:miter;stroke-opacity:1"/> <path id="path5594" d="m 313.43021,-87.615864 c 1.83935,3.349512 6.84025,5.035048 2.80532,11.476289 -1.57943,2.827628 -0.91385,11.981728 5.22808,6.120688" style="fill:none;fill-rule:evenodd;stroke:#000000;stroke-width:1px;stroke-linecap:butt;stroke-linejoin:miter;stroke-opacity:1"/> <path id="path5596" d="m 461.0918,-73.716803 c -2.61821,2.157578 -6.54549,3.791523 -2.6778,8.54346 0.76693,4.168824 2.09968,11.539335 -6.12069,4.207973 l 0.38255,6.120687" style="fill:none;fill-rule:evenodd;stroke:#000000;stroke-width:1px;stroke-linecap:butt;stroke-linejoin:miter;stroke-opacity:1"/> <path id="path5598" d="m 332.71344,-110.78234 c -6.70235,1.61298 -7.98899,6.23468 -10.63962,10.09861" style="fill:none;fill-rule:evenodd;stroke:#000000;stroke-width:1px;stroke-linecap:butt;stroke-linejoin:miter;stroke-opacity:1"/> <path id="path5600" d="m 321.35249,-95.454083 c 1.15284,-3.887894 2.6061,-7.235017 6.13131,-6.852637" style="fill:none;fill-rule:evenodd;stroke:#000000;stroke-width:1px;stroke-linecap:butt;stroke-linejoin:miter;stroke-opacity:1"/> <path id="path5602" d="m 324.05748,-107.53636 c 3.55547,-6.40953 8.41234,-9.56557 13.8856,-11.18061" style="fill:none;fill-rule:evenodd;stroke:#000000;stroke-width:1px;stroke-linecap:butt;stroke-linejoin:miter;stroke-opacity:1"/> <path id="path5604" d="m 328.74613,-118.71697 c 4.92909,-4.04525 9.85817,-4.19376 14.78726,-5.59031 -3.07249,-1.63525 -6.55102,-0.42818 -10.09862,1.26233 4.51963,-5.92057 9.8399,-5.43597 14.78726,-7.93463 -4.00075,1.3982 -5.40295,-1.53451 -12.08227,4.32798" style="fill:none;fill-rule:evenodd;stroke:#000000;stroke-width:1px;stroke-linecap:butt;stroke-linejoin:miter;stroke-opacity:1"/> <path id="path5606" d="m 393.84615,-143.42253 c -11.20156,3.73197 -21.83544,9.28052 -34.62383,7.93463" style="fill:none;fill-rule:evenodd;stroke:#000000;stroke-width:1px;stroke-linecap:butt;stroke-linejoin:miter;stroke-opacity:1"/> <path id="path5608" d="m 357.95999,-128.45493 c 21.18814,2.16288 30.03617,-6.42873 37.50009,-11.60691" style="fill:none;fill-rule:evenodd;stroke:#000000;stroke-width:1px;stroke-linecap:butt;stroke-linejoin:miter;stroke-opacity:1"/> <path id="path5610" d="m 398.89546,-139.27488 c -5.06677,12.14069 -17.70667,10.1763 -33.54184,14.24627" style="fill:none;fill-rule:evenodd;stroke:#000000;stroke-width:1px;stroke-linecap:butt;stroke-linejoin:miter;stroke-opacity:1"/> <path id="path5612" d="m 368.41927,-119.07764 c 13.98035,-2.2447 25.77148,-6.44406 30.29586,-17.13159" style="fill:none;fill-rule:evenodd;stroke:#000000;stroke-width:1px;stroke-linecap:butt;stroke-linejoin:miter;stroke-opacity:1"/> <path id="path5614" d="m 402.86278,-136.93056 c -2.08118,9.79818 -8.84305,16.19222 -18.39391,20.55791" style="fill:none;fill-rule:evenodd;stroke:#000000;stroke-width:1px;stroke-linecap:butt;stroke-linejoin:miter;stroke-opacity:1"/> <path id="path5616" d="m 386.81319,-110.42168 c 9.66592,-6.25147 17.28997,-13.70404 15.50859,-26.68921" style="fill:none;fill-rule:evenodd;stroke:#000000;stroke-width:1px;stroke-linecap:butt;stroke-linejoin:miter;stroke-opacity:1"/> <path id="path5618" d="m 405.2071,-135.66823 c 3.94397,11.23313 1.72176,20.89061 -4.50831,29.75486" style="fill:none;fill-rule:evenodd;stroke:#000000;stroke-width:1px;stroke-linecap:butt;stroke-linejoin:miter;stroke-opacity:1"/> <path id="path5620" d="m 405.92843,-111.86434 c 3.21037,-6.63816 3.99951,-13.67986 1.44266,-21.27923" style="fill:none;fill-rule:evenodd;stroke:#000000;stroke-width:1px;stroke-linecap:butt;stroke-linejoin:miter;stroke-opacity:1"/> <path id="path5622" d="m 408.99408,-133.8649 c 2.80983,10.01474 2.10457,18.52301 0.18034,26.50887" style="fill:none;fill-rule:evenodd;stroke:#000000;stroke-width:1px;stroke-linecap:butt;stroke-linejoin:miter;stroke-opacity:1"/> <path id="path5624" d="m 415.30572,-110.06101 c 2.10727,-7.31326 0.24941,-14.89086 -2.70499,-22.54157" style="fill:none;fill-rule:evenodd;stroke:#000000;stroke-width:1px;stroke-linecap:butt;stroke-linejoin:miter;stroke-opacity:1"/> <path id="path5626" d="m 415.12539,-131.15992 c 2.59724,7.94196 7.05855,15.59714 5.59031,24.16456" style="fill:none;fill-rule:evenodd;stroke:#000000;stroke-width:1px;stroke-linecap:butt;stroke-linejoin:miter;stroke-opacity:1"/> <path id="path5630" d="m 417.65004,-128.81559 c 4.8372,6.01329 10.15949,11.93561 9.73796,18.93491" style="fill:none;fill-rule:evenodd;stroke:#000000;stroke-width:1px;stroke-linecap:butt;stroke-linejoin:miter;stroke-opacity:1"/> <path id="path5632" d="m 429.01099,-110.96268 c 1.84119,-8.68312 -3.61655,-12.42696 -7.57396,-16.95125" style="fill:none;fill-rule:evenodd;stroke:#000000;stroke-width:1px;stroke-linecap:butt;stroke-linejoin:miter;stroke-opacity:1"/> <path id="path5634" d="m 425.94534,-127.7336 c 5.33277,6.97663 14.12319,13.6757 10.27895,21.27923" style="fill:none;fill-rule:evenodd;stroke:#000000;stroke-width:1px;stroke-linecap:butt;stroke-linejoin:miter;stroke-opacity:1"/> <path id="path5636" d="m 438.92928,-108.07736 c 1.61784,-7.2743 -2.50645,-11.06336 -9.19696,-16.22992" style="fill:none;fill-rule:evenodd;stroke:#000000;stroke-width:1px;stroke-linecap:butt;stroke-linejoin:miter;stroke-opacity:1"/> <path id="path5638" d="m 430.27332,-126.47127 c 4.13469,4.46116 8.9273,8.2644 10.81995,14.9676" style="fill:none;fill-rule:evenodd;stroke:#000000;stroke-width:1px;stroke-linecap:butt;stroke-linejoin:miter;stroke-opacity:1"/> <path id="path5640" d="m 447.4049,-110.78234 c 0.33019,-4.09831 -3.82835,-6.56436 -7.03296,-9.37729" style="fill:none;fill-rule:evenodd;stroke:#000000;stroke-width:1px;stroke-linecap:butt;stroke-linejoin:miter;stroke-opacity:1"/> <path id="path5642" d="m 347.32037,-133.68457 c 12.50259,-8.89885 34.8095,-13.09648 46.70612,-7.7543 -13.07733,-5.36353 -28.30751,-8.6839 -42.7388,2.70499" style="fill:none;fill-rule:evenodd;stroke:#000000;stroke-width:1px;stroke-linecap:butt;stroke-linejoin:miter;stroke-opacity:1"/> <path id="path5644" d="m 344.79572,-145.04552 c 18.21176,-10.76923 33.42769,-8.69916 46.88644,0.90166" style="fill:none;fill-rule:evenodd;stroke:#000000;stroke-width:1px;stroke-linecap:butt;stroke-linejoin:miter;stroke-opacity:1"/> <path id="path5646" d="m 393.43643,-142.40772 c -7.09467,-9.66379 -20.75003,-17.2425 -31.32879,-19.76938" style="fill:none;fill-rule:evenodd;stroke:#000000;stroke-width:1px;stroke-linecap:butt;stroke-linejoin:miter;stroke-opacity:1"/> <path id="path5648" d="m 344.07439,-149.3735 c 18.8024,-7.24632 35.5005,-1.24061 50.25088,7.04578" style="fill:none;fill-rule:evenodd;stroke:#000000;stroke-width:1px;stroke-linecap:butt;stroke-linejoin:miter;stroke-opacity:1"/> <path id="path5650" d="m 342.09073,-139.99621 c 24.2302,9.90607 39.2775,5.65515 52.06703,-2.07648" style="fill:none;fill-rule:evenodd;stroke:#000000;stroke-width:1px;stroke-linecap:butt;stroke-linejoin:miter;stroke-opacity:1"/> <path id="path5652" d="m 451.40071,-115.41399 c 0.85826,35.928616 -7.00742,68.118717 -37.29794,93.212975" style="fill:none;fill-rule:evenodd;stroke:#000000;stroke-width:1px;stroke-linecap:butt;stroke-linejoin:miter;stroke-opacity:1"/> <path id="path5654" d="m 332.02167,-47.486199 c -2.77463,-24.219029 -2.01882,-97.792191 59.37663,-95.955301" style="fill:none;fill-rule:evenodd;stroke:#000000;stroke-width:1px;stroke-linecap:butt;stroke-linejoin:miter;stroke-opacity:1"/> <path id="path5669" d="m 357.42265,-78.434833 c 6.43858,-14.19829 16.61515,-4.024335 16.57687,0.8926 -6.18648,-2.015759 -11.58999,-1.995798 -16.57687,-0.8926 z" style="fill:#000000;fill-rule:evenodd;stroke:none;stroke-width:1px;stroke-linecap:butt;stroke-linejoin:miter;stroke-opacity:1"/> <path style="fill:#000000;fill-rule:evenodd;stroke:none;stroke-width:1px;stroke-linecap:butt;stroke-linejoin:miter;stroke-opacity:1" d="m 422.8786,-74.764533 c -5.00549,-14.764545 -16.13671,-5.644905 -16.58401,-0.748208 6.35525,-1.395191 11.7304,-0.8419 16.58401,0.748208 z" id="path5671"/> <path id="path5673" d="m 381.77789,-64.535771 c 7.97891,-6.048097 10.59848,-2.449402 13.64403,0.382543" style="fill:none;fill-rule:evenodd;stroke:#000000;stroke-width:1px;stroke-linecap:butt;stroke-linejoin:miter;stroke-opacity:1"/> <path id="path5675" d="m 369.66403,-58.160055 c 13.12665,15.137643 25.42515,16.527987 36.85164,3.442887" style="fill:none;fill-rule:evenodd;stroke:#000000;stroke-width:1px;stroke-linecap:butt;stroke-linejoin:miter;stroke-opacity:1"/> <path id="path5677" d="m 404.22041,-58.287569 c 3.36093,0.311791 5.76256,1.486948 5.73815,4.845544" style="fill:none;fill-rule:evenodd;stroke:#000000;stroke-width:1px;stroke-linecap:butt;stroke-linejoin:miter;stroke-opacity:1"/> <path id="path5679" d="m 373.74449,-61.602942 c -3.3692,1.040903 -5.67766,2.788966 -5.99318,5.865659" style="fill:none;fill-rule:evenodd;stroke:#000000;stroke-width:1px;stroke-linecap:butt;stroke-linejoin:miter;stroke-opacity:1"/> <path id="path5681" d="m 367.15695,-17.911113 -5.95098,17.31191848 30.11553,-2.16398988 25.42688,7.5739645 1.44266,-18.9349111 -26.32854,5.7706395 z" style="fill:#000000;fill-rule:evenodd;stroke:#000000;stroke-width:1px;stroke-linecap:butt;stroke-linejoin:miter;stroke-opacity:1"/> <circle r="5.1394758" cy="-5.7386703" cx="390.50998" id="path5683" style="color:#000000;clip-rule:nonzero;display:inline;overflow:visible;visibility:visible;opacity:1;isolation:auto;mix-blend-mode:normal;color-interpolation:sRGB;color-interpolation-filters:linearRGB;solid-color:#000000;solid-opacity:1;fill:#000000;fill-opacity:1;fill-rule:evenodd;stroke:#000000;stroke-width:1px;stroke-linecap:butt;stroke-linejoin:miter;stroke-miterlimit:4;stroke-dasharray:none;stroke-dashoffset:0;stroke-opacity:1;color-rendering:auto;image-rendering:auto;shape-rendering:auto;text-rendering:auto;enable-background:accumulate"/> <path id="path5691" d="m 138.13234,35.816969 c -22.22055,8.088703 -36.987,27.209381 -18.24522,40.295811 95.91284,64.61876 203.83906,43.01884 306.62105,10.711544 15.84784,-3.947988 27.3961,-29.896334 -1.52044,-44.886472 C 356.59421,17.112843 240.64118,7.8068126 138.13234,35.816969 Z" style="fill:#ffdd55;fill-rule:evenodd;stroke:none;stroke-width:0.99682915px;stroke-linecap:butt;stroke-linejoin:miter;stroke-opacity:1"/> <path id="path5695" d="m 442.0957,80.917969 c -5.02113,10.545012 -9.58384,22.010661 -10.07812,41.609371 -3.44955,3.68998 2.29469,36.37317 -12.24024,5.10157 -9.38161,-19.63627 -19.27673,-34.979434 -36.21484,8.66992 -12.89027,39.73332 -22.50975,20.61164 -32.64258,10.71094 -7.18106,-4.00895 -11.04171,-27.94546 -22.44336,-6.63086 -3.7225,2.63549 -6.77223,11.65476 -11.73047,2.55078 -11.53023,-16.42243 -22.68953,1.89307 -27.54297,8.16211 -9.70528,7.94006 -14.78228,4.39311 -21.42382,-5.61133 -12.4944,-14.11997 -15.34274,-36.66168 -38.25391,-17.3418 -5.58108,5.84359 -10.04631,4.43563 -14.28125,1.5293 -4.93179,-5.25083 -10.20064,-5.1206 -15.8125,0.50976 -4.93055,3.76173 -9.86046,-2.48676 -14.79102,-5.60937 -13.36933,-15.54196 -27.47426,-24.21657 -44.88476,-2.04102 -9.95439,20.58045 -15.68576,-20.25324 -29.05859,-40.271481 l -3.58985,80.439451 c 68.46311,52.74689 265.72355,52.26255 334.0957,1.50781 l 0.89258,-83.285151 z" style="fill:#00112b;fill-rule:evenodd;stroke:none;stroke-width:1px;stroke-linecap:butt;stroke-linejoin:miter;stroke-opacity:1"/> <path id="path5701" d="m 166.98788,67.377091 c 1.49072,-19.521587 1.89895,-38.826677 5.59031,-58.7883908 3.17713,19.2870158 2.33438,39.2440098 2.88532,58.9687238 z" style="fill:#a0892c;fill-rule:evenodd;stroke:none;stroke-width:1px;stroke-linecap:butt;stroke-linejoin:miter;stroke-opacity:1"/> <path id="path5699" d="m 160.66805,66.421441 c 5.4968,20.444816 16.75605,7.017718 19.63721,0.510058 z" style="fill:#003380;fill-rule:evenodd;stroke:none;stroke-width:1px;stroke-linecap:butt;stroke-linejoin:miter;stroke-opacity:1"/> <path id="path5703" d="m 173.547,-8.1744395 c -0.81165,4.3702307 -3.32043,8.45760726 -2.29526,13.1339755 1.29985,2.3917527 4.52854,2.559509 4.33549,0 0.39284,-6.8070466 -0.824,-9.9698087 -2.04023,-13.1339755 z" style="fill:#ff7f2a;fill-rule:evenodd;stroke:none;stroke-width:1px;stroke-linecap:butt;stroke-linejoin:miter;stroke-opacity:1"/> <path style="fill:#a0892c;fill-rule:evenodd;stroke:none;stroke-width:1px;stroke-linecap:butt;stroke-linejoin:miter;stroke-opacity:1" d="m 281.1776,28.020116 c -0.61041,-19.5689042 -0.14917,-38.8728 -2.93817,-58.980452 -4.04215,19.124439 -4.09866,39.0991392 -5.53699,58.779055 z" id="path5707"/> <path style="fill:#003380;fill-rule:evenodd;stroke:none;stroke-width:1px;stroke-linecap:butt;stroke-linejoin:miter;stroke-opacity:1" d="m 287.1332,27.5203 c -6.41159,20.17664 -17.05498,6.256297 -19.64026,-0.374467 z" id="path5705"/> <path style="fill:#ff7f2a;fill-rule:evenodd;stroke:none;stroke-width:1px;stroke-linecap:butt;stroke-linejoin:miter;stroke-opacity:1" d="m 277.62539,-47.579729 c 0.61409,4.402339 2.93633,8.598509 1.70168,13.223987 -1.4062,2.330812 -4.63917,2.353053 -4.3311,-0.195171 -0.086,-6.81783 1.27198,-9.922607 2.62942,-13.028816 z" id="path5709"/> <path id="path5713" d="m 403.5841,62.336844 c 1.49072,-19.521588 1.89895,-38.826677 5.59031,-58.7883918 3.17713,19.2870168 2.33438,39.2440098 2.88532,58.9687248 z" style="fill:#a0892c;fill-rule:evenodd;stroke:none;stroke-width:1px;stroke-linecap:butt;stroke-linejoin:miter;stroke-opacity:1"/> <path id="path5711" d="m 397.26427,61.732797 c 5.4968,20.444816 16.75605,7.017718 19.63721,0.510058 z" style="fill:#003380;fill-rule:evenodd;stroke:none;stroke-width:1px;stroke-linecap:butt;stroke-linejoin:miter;stroke-opacity:1"/> <path id="path5715" d="m 409.63316,-12.863084 c -0.81165,4.3702307 -3.32043,8.4576067 -2.29526,13.13397574 1.29985,2.39175196 4.52854,2.55950896 4.33549,0 0.39284,-6.80704704 -0.824,-9.96980904 -2.04023,-13.13397574 z" style="fill:#ff7f2a;fill-rule:evenodd;stroke:none;stroke-width:1px;stroke-linecap:butt;stroke-linejoin:miter;stroke-opacity:1"/> <path id="path5568" d="m 456.24626,-114.6489 12.61821,-103.61161 c -6.01108,-0.48089 -9.61773,-2.64488 -10.81995,-6.49197 l -64.9197,82.23162 c 15.52413,20.93629 39.1091,24.85524 63.12144,27.87196 z" style="fill:#3c6f6e;fill-opacity:1;fill-rule:evenodd;stroke:#000000;stroke-width:1px;stroke-linecap:butt;stroke-linejoin:miter;stroke-opacity:1"/> <path id="path5570" d="m 458.04492,-224.75195 -64.91992,82.23047 c 2.13967,2.88562 4.43734,5.43748 6.86328,7.71875 l 59.75977,-86.98243 c -0.77603,-0.84327 -1.34762,-1.82916 -1.70313,-2.96679 z" style="fill:#000000;fill-rule:evenodd;stroke:#000000;stroke-width:1px;stroke-linecap:butt;stroke-linejoin:miter;stroke-opacity:1"/> <path id="path5572" d="m 460.03906,-221.48633 -47.1289,95.83008 c 4.61634,2.42037 9.51031,4.25365 14.58007,5.7168 l 38.47657,-98.72461 c -2.56755,-0.52686 -4.5418,-1.46828 -5.92774,-2.82227 z" style="fill:#000000;fill-rule:evenodd;stroke:#000000;stroke-width:1px;stroke-linecap:butt;stroke-linejoin:miter;stroke-opacity:1"/> <path id="path5574" d="m 464.75977,-218.95117 -24.45508,101.95312 c 5.1999,0.93714 10.49967,1.66412 15.82617,2.33399 l 12.61328,-103.61133 c -1.47198,-0.12429 -2.80405,-0.34733 -3.98437,-0.67578 z" style="fill:#000000;fill-rule:evenodd;stroke:#000000;stroke-width:1px;stroke-linecap:butt;stroke-linejoin:miter;stroke-opacity:1"/> <path id="path5720" d="m 452.45421,-227.81813 c 2.40261,0.94028 4.51014,2.29368 5.22965,5.59031" style="fill:none;fill-rule:evenodd;stroke:#000000;stroke-width:1px;stroke-linecap:butt;stroke-linejoin:miter;stroke-opacity:1"/> <path id="path5722" d="m 458.94618,-220.24417 c 0.61089,-4.41669 1.5098,-8.72261 -2.16399,-14.78726" style="fill:none;fill-rule:evenodd;stroke:#000000;stroke-width:1px;stroke-linecap:butt;stroke-linejoin:miter;stroke-opacity:1"/> <path id="path5724" d="m 461.29051,-240.9824 c 2.92989,8.7878 0.76007,15.75429 -0.90167,22.90222" style="fill:none;fill-rule:evenodd;stroke:#000000;stroke-width:1px;stroke-linecap:butt;stroke-linejoin:miter;stroke-opacity:1"/> <path id="path5726" d="m 464.89715,-233.7691 c 1.98225,7.24953 -1.86565,11.35975 -3.96731,16.41025" style="fill:none;fill-rule:evenodd;stroke:#000000;stroke-width:1px;stroke-linecap:butt;stroke-linejoin:miter;stroke-opacity:1"/> <path id="path5728" d="m 462.73317,-215.73585 c 1.72452,-5.09561 1.73498,-10.76258 7.21329,-14.60693" style="fill:none;fill-rule:evenodd;stroke:#000000;stroke-width:1px;stroke-linecap:butt;stroke-linejoin:miter;stroke-opacity:1"/> <path id="path5730" d="m 480.04508,-232.86744 c -5.6614,6.16395 -11.39801,12.13989 -18.39391,14.9676" style="fill:none;fill-rule:evenodd;stroke:#000000;stroke-width:1px;stroke-linecap:butt;stroke-linejoin:miter;stroke-opacity:1"/> <path id="path5732" d="m 476.2581,-221.32616 c -5.10197,-2.92913 -8.44831,0.81309 -11.90194,4.14765" style="fill:none;fill-rule:evenodd;stroke:#000000;stroke-width:1px;stroke-linecap:butt;stroke-linejoin:miter;stroke-opacity:1"/> <circle r="4.5083122" cy="-242.42506" cx="460.38885" id="path5576" style="color:#000000;clip-rule:nonzero;display:inline;overflow:visible;visibility:visible;opacity:1;isolation:auto;mix-blend-mode:normal;color-interpolation:sRGB;color-interpolation-filters:linearRGB;solid-color:#000000;solid-opacity:1;fill:#3c6f6e;fill-opacity:1;fill-rule:evenodd;stroke:none;stroke-width:1px;stroke-linecap:butt;stroke-linejoin:miter;stroke-miterlimit:4;stroke-dasharray:none;stroke-dashoffset:0;stroke-opacity:1;color-rendering:auto;image-rendering:auto;shape-rendering:auto;text-rendering:auto;enable-background:accumulate"/> <circle style="color:#000000;clip-rule:nonzero;display:inline;overflow:visible;visibility:visible;opacity:1;isolation:auto;mix-blend-mode:normal;color-interpolation:sRGB;color-interpolation-filters:linearRGB;solid-color:#000000;solid-opacity:1;fill:#3c6f6e;fill-opacity:1;fill-rule:evenodd;stroke:none;stroke-width:1px;stroke-linecap:butt;stroke-linejoin:miter;stroke-miterlimit:4;stroke-dasharray:none;stroke-dashoffset:0;stroke-opacity:1;color-rendering:auto;image-rendering:auto;shape-rendering:auto;text-rendering:auto;enable-background:accumulate" id="circle5578" cx="449.38858" cy="-236.11343" r="4.5083122"/> <circle r="4.5083122" cy="-227.6378" cx="450.65091" id="circle5580" style="color:#000000;clip-rule:nonzero;display:inline;overflow:visible;visibility:visible;opacity:1;isolation:auto;mix-blend-mode:normal;color-interpolation:sRGB;color-interpolation-filters:linearRGB;solid-color:#000000;solid-opacity:1;fill:#3c6f6e;fill-opacity:1;fill-rule:evenodd;stroke:none;stroke-width:1px;stroke-linecap:butt;stroke-linejoin:miter;stroke-miterlimit:4;stroke-dasharray:none;stroke-dashoffset:0;stroke-opacity:1;color-rendering:auto;image-rendering:auto;shape-rendering:auto;text-rendering:auto;enable-background:accumulate"/> <circle style="color:#000000;clip-rule:nonzero;display:inline;overflow:visible;visibility:visible;opacity:1;isolation:auto;mix-blend-mode:normal;color-interpolation:sRGB;color-interpolation-filters:linearRGB;solid-color:#000000;solid-opacity:1;fill:#274948;fill-opacity:1;fill-rule:evenodd;stroke:none;stroke-width:1px;stroke-linecap:butt;stroke-linejoin:miter;stroke-miterlimit:4;stroke-dasharray:none;stroke-dashoffset:0;stroke-opacity:1;color-rendering:auto;image-rendering:auto;shape-rendering:auto;text-rendering:auto;enable-background:accumulate" id="circle5582" cx="455.88055" cy="-235.21176" r="4.5083122"/> <circle r="4.5083122" cy="-234.12976" cx="464.89719" id="circle5584" style="color:#000000;clip-rule:nonzero;display:inline;overflow:visible;visibility:visible;opacity:1;isolation:auto;mix-blend-mode:normal;color-interpolation:sRGB;color-interpolation-filters:linearRGB;solid-color:#000000;solid-opacity:1;fill:#529896;fill-opacity:1;fill-rule:evenodd;stroke:none;stroke-width:1px;stroke-linecap:butt;stroke-linejoin:miter;stroke-miterlimit:4;stroke-dasharray:none;stroke-dashoffset:0;stroke-opacity:1;color-rendering:auto;image-rendering:auto;shape-rendering:auto;text-rendering:auto;enable-background:accumulate"/> <circle style="color:#000000;clip-rule:nonzero;display:inline;overflow:visible;visibility:visible;opacity:1;isolation:auto;mix-blend-mode:normal;color-interpolation:sRGB;color-interpolation-filters:linearRGB;solid-color:#000000;solid-opacity:1;fill:#529896;fill-opacity:1;fill-rule:evenodd;stroke:none;stroke-width:1px;stroke-linecap:butt;stroke-linejoin:miter;stroke-miterlimit:4;stroke-dasharray:none;stroke-dashoffset:0;stroke-opacity:1;color-rendering:auto;image-rendering:auto;shape-rendering:auto;text-rendering:auto;enable-background:accumulate" id="circle5586" cx="471.56949" cy="-241.34306" r="4.5083122"/> <circle r="4.5083122" cy="-232.6871" cx="470.66782" id="circle5588" style="color:#000000;clip-rule:nonzero;display:inline;overflow:visible;visibility:visible;opacity:1;isolation:auto;mix-blend-mode:normal;color-interpolation:sRGB;color-interpolation-filters:linearRGB;solid-color:#000000;solid-opacity:1;fill:#274948;fill-opacity:1;fill-rule:evenodd;stroke:none;stroke-width:1px;stroke-linecap:butt;stroke-linejoin:miter;stroke-miterlimit:4;stroke-dasharray:none;stroke-dashoffset:0;stroke-opacity:1;color-rendering:auto;image-rendering:auto;shape-rendering:auto;text-rendering:auto;enable-background:accumulate"/> <circle style="color:#000000;clip-rule:nonzero;display:inline;overflow:visible;visibility:visible;opacity:1;isolation:auto;mix-blend-mode:normal;color-interpolation:sRGB;color-interpolation-filters:linearRGB;solid-color:#000000;solid-opacity:1;fill:#3c6f6e;fill-opacity:1;fill-rule:evenodd;stroke:none;stroke-width:1px;stroke-linecap:butt;stroke-linejoin:miter;stroke-miterlimit:4;stroke-dasharray:none;stroke-dashoffset:0;stroke-opacity:1;color-rendering:auto;image-rendering:auto;shape-rendering:auto;text-rendering:auto;enable-background:accumulate" id="circle5590" cx="480.0451" cy="-233.04778" r="4.5083122"/> <circle r="4.5083122" cy="-222.58849" cx="476.61877" id="circle5592" style="color:#000000;clip-rule:nonzero;display:inline;overflow:visible;visibility:visible;opacity:1;isolation:auto;mix-blend-mode:normal;color-interpolation:sRGB;color-interpolation-filters:linearRGB;solid-color:#000000;solid-opacity:1;fill:#529896;fill-opacity:1;fill-rule:evenodd;stroke:none;stroke-width:1px;stroke-linecap:butt;stroke-linejoin:miter;stroke-miterlimit:4;stroke-dasharray:none;stroke-dashoffset:0;stroke-opacity:1;color-rendering:auto;image-rendering:auto;shape-rendering:auto;text-rendering:auto;enable-background:accumulate"/> </g> </g> </svg>